<?xml version="1.0" standalone="no"?><!DOCTYPE svg PUBLIC "-//W3C//DTD SVG 1.1//EN" "http://www.w3.org/Graphics/SVG/1.1/DTD/svg11.dtd"><svg t="1614834489139" class="icon" viewBox="0 0 1024 1024" version="1.1" xmlns="http://www.w3.org/2000/svg" p-id="3387" xmlns:xlink="http://www.w3.org/1999/xlink" width="200" height="200"><defs><style type="text/css"></style></defs><path d="M512 68.92307656C266.46153875 68.92307656 68.92307656 266.46153875 68.92307656 512s197.53846125 443.07692344 443.07692344 443.07692344 443.07692344-197.53846125 443.07692344-443.07692344S757.53846125 68.92307656 512 68.92307656z m90.46153875 457.84615407l144 143.99999999c7.38461531 7.38461531 7.38461531 18.46153875 0 25.84615407l-51.69230812 51.69230719c-7.38461531 7.38461531-18.46153875 7.38461531-25.84615407 0L524.92307656 604.30769188c-7.38461531-7.38461531-18.46153875-7.38461531-25.84615312 0l-144 143.99999999c-7.38461531 7.38461531-18.46153875 7.38461531-25.84615407 1e-8L277.53846125 696.61538469c-7.38461531-7.38461531-7.38461531-18.46153875 0-25.84615407l144-143.99999999c7.38461531-7.38461531 7.38461531-18.46153875 0-25.84615407l-145.84615313-145.84615312c-7.38461531-7.38461531-7.38461531-18.46153875 1e-8-25.84615407l51.69230718-51.69230812c7.38461531-7.38461531 18.46153875-7.38461531 25.84615407 0l145.84615406 145.84615406c7.38461531 7.38461531 18.46153875 7.38461531 25.84615312 0l144-144c7.38461531-7.38461531 18.46153875-7.38461531 25.84615407 0l51.69230812 51.69230813c7.38461531 7.38461531 7.38461531 18.46153875 0 25.84615312l-144 144c-5.53846125 7.38461531-5.53846125 18.46153875 0 25.84615407z" p-id="3388"></path></svg>