<?xml version="1.0" standalone="no"?><!DOCTYPE svg PUBLIC "-//W3C//DTD SVG 1.1//EN" "http://www.w3.org/Graphics/SVG/1.1/DTD/svg11.dtd"><svg t="1614609004461" class="icon" viewBox="0 0 1024 1024" version="1.1" xmlns="http://www.w3.org/2000/svg" p-id="3250" xmlns:xlink="http://www.w3.org/1999/xlink" width="200" height="200"><defs><style type="text/css"></style></defs><path d="M950.07175111 434.51411722l-111.47527964-56.54543171a284.65343147 284.65343147 0 0 0 15.0994944-41.01097244 24.85513482 24.85513482 0 0 0-47.84613452-13.48391064C766.76513185 461.79262768 626.5821715 510.88151893 518.2137837 510.88151893s-248.55134815-49.08889125-287.63604765-187.34557866A24.85513482 24.85513482 0 1 0 182.6694637 337.0198509a284.65343147 284.65343147 0 0 0 15.03735657 40.94883461L73.92824889 440.72790092a24.85513482 24.85513482 0 1 0 22.49389701 44.3042778l124.64850109-63.19418027 1.18061891-0.74565403a297.82665292 297.82665292 0 0 0 79.59856925 77.98298548L223.68043615 609.99136901a24.85513482 24.85513482 0 1 0 40.63814542 28.64554287l77.92084765-110.60534993a24.85513482 24.85513482 0 0 0 2.54765131-4.59819993 392.40044089 392.40044089 0 0 0 138.25668742 35.72925629L468.50351408 691.0191085a24.85513482 24.85513482 0 0 0 21.9967943 27.40278613h2.73406484a24.85513482 24.85513482 0 0 0 24.85513481-22.12106998l14.91308089-136.14400095a410.79324065 410.79324065 0 0 0 127.87966863-23.92306725 24.85513482 24.85513482 0 0 0 2.29909996 4.0389594l77.92084764 110.60534993a24.85513482 24.85513482 0 1 0 40.63814543-28.64554288l-75.0003693-106.56639052a304.47540148 304.47540148 0 0 0 107.49845807-94.6359258l113.52582827 57.60177493a24.85513482 24.85513482 0 0 0 22.493897-44.30427781z" fill="" p-id="3251"></path></svg>