<?xml version="1.0" standalone="no"?><!DOCTYPE svg PUBLIC "-//W3C//DTD SVG 1.1//EN" "http://www.w3.org/Graphics/SVG/1.1/DTD/svg11.dtd"><svg t="1614839862505" class="icon" viewBox="0 0 1024 1024" version="1.1" xmlns="http://www.w3.org/2000/svg" p-id="5729" xmlns:xlink="http://www.w3.org/1999/xlink" width="200" height="200"><defs><style type="text/css"></style></defs><path d="M908 799.542857a427.428571 427.428571 0 0 0-92.114286-136.571428 429.291429 429.291429 0 0 0-136.571428-92.114286c-0.457143-0.228571-0.914286-0.342857-1.371429-0.571429C749.142857 518.857143 795.428571 435.085714 795.428571 340.571429c0-156.571429-126.857143-283.428571-283.428571-283.428572S228.571429 184 228.571429 340.571429c0 94.514286 46.285714 178.285714 117.485714 229.828571-0.457143 0.228571-0.914286 0.342857-1.371429 0.571429-51.2 21.6-97.142857 52.571429-136.571428 92.114285a429.291429 429.291429 0 0 0-92.114286 136.571429A424.8 424.8 0 0 0 82.285714 957.485714a9.142857 9.142857 0 0 0 9.142857 9.371429h68.571429c5.028571 0 9.028571-4 9.142857-8.914286 2.285714-88.228571 37.714286-170.857143 100.342857-233.485714 64.8-64.8 150.857143-100.457143 242.514286-100.457143s177.714286 35.657143 242.514286 100.457143C817.142857 787.085714 852.571429 869.714286 854.857143 957.942857c0.114286 5.028571 4.114286 8.914286 9.142857 8.914286h68.571429a9.142857 9.142857 0 0 0 9.142857-9.371429c-1.142857-54.628571-12.457143-107.771429-33.714286-157.942857zM512 537.142857c-52.457143 0-101.828571-20.457143-138.971429-57.6S315.428571 393.028571 315.428571 340.571429c0-52.457143 20.457143-101.828571 57.6-138.971429S459.542857 144 512 144s101.828571 20.457143 138.971429 57.6S708.571429 288.114286 708.571429 340.571429c0 52.457143-20.457143 101.828571-57.6 138.971428S564.457143 537.142857 512 537.142857z" p-id="5730"></path></svg>